<svg width="701" height="175" viewBox="0 0 701 175" fill="none" xmlns="http://www.w3.org/2000/svg">
<path d="M285.026 103.77L312.094 22.97C313.171 19.4686 315.191 17.718 318.154 17.718C320.174 17.718 321.857 18.4586 323.204 19.94C324.685 21.2866 325.426 22.9026 325.426 24.788L325.022 26.808L291.692 123.768C290.48 127.135 288.191 128.818 284.824 128.818C281.323 128.818 278.966 127.135 277.754 123.768L244.424 26.808L244.222 24.788C244.222 22.9026 244.895 21.2866 246.242 19.94C247.589 18.4586 249.205 17.718 251.09 17.718C254.187 17.718 256.342 19.4686 257.554 22.97L285.026 103.77Z" fill="black"/>
<path d="M406.06 32.666V24.788C406.06 22.768 406.734 21.0846 408.08 19.738C409.562 18.2566 411.312 17.516 413.332 17.516C415.218 17.516 416.766 18.1893 417.978 19.536C419.325 20.748 419.998 22.364 419.998 24.384V122.152C419.998 124.037 419.325 125.653 417.978 127C416.632 128.347 415.016 129.02 413.13 129.02C411.11 129.02 409.36 128.279 407.878 126.798C406.532 125.182 405.858 123.297 405.858 121.142V111.244C400.876 117.977 396.162 122.623 391.718 125.182C387.409 127.606 381.753 128.818 374.75 128.818C361.418 128.818 350.376 123.633 341.622 113.264C333.004 102.76 328.694 89.428 328.694 73.268C328.694 57.2426 333.004 43.978 341.622 33.474C350.241 22.97 361.149 17.718 374.346 17.718C381.08 17.718 386.601 18.728 390.91 20.748C395.22 22.768 400.27 26.7406 406.06 32.666ZM376.366 29.232C366.266 29.232 358.254 33.2046 352.328 41.15C346.538 48.9606 343.642 59.5993 343.642 73.066C343.642 86.5326 346.47 97.2386 352.126 105.184C357.782 113.129 365.458 117.102 375.154 117.102C396.297 117.102 406.868 102.087 406.868 72.056C406.868 63.8413 406.33 57.512 405.252 53.068C404.175 48.624 402.088 44.382 398.99 40.342C393.469 32.9353 385.928 29.232 376.366 29.232Z" fill="black"/>
<path d="M457.681 32.666C459.97 29.7033 461.855 27.5486 463.337 26.202C464.818 24.8553 466.905 23.5086 469.599 22.162C472.292 20.8153 475.12 19.738 478.083 18.93C481.18 18.122 484.008 17.718 486.567 17.718C497.609 17.718 507.103 21.6906 515.049 29.636C518.954 33.676 521.647 37.918 523.129 42.362C524.745 46.6713 525.553 52.3273 525.553 59.33V122.152C525.553 124.172 524.879 125.855 523.533 127.202C522.186 128.549 520.503 129.222 518.483 129.222C516.597 129.222 514.981 128.549 513.635 127.202C512.288 125.855 511.615 124.239 511.615 122.354V58.118C511.615 50.5766 509.056 44.1126 503.939 38.726C498.956 33.2046 492.829 30.444 485.557 30.444C477.746 30.444 471.08 33.1373 465.559 38.524C460.172 43.776 457.479 50.1726 457.479 57.714V122.354C457.479 126.798 455.324 129.02 451.015 129.02C448.995 129.02 447.244 128.347 445.763 127C444.416 125.788 443.743 124.239 443.743 122.354V24.384C443.743 22.364 444.416 20.6806 445.763 19.334C447.109 17.9873 448.86 17.314 451.015 17.314C452.765 17.314 454.314 18.0546 455.661 19.536C457.007 21.0173 457.681 22.7006 457.681 24.586V32.666Z" fill="black"/>
<path d="M593.876 123.748C593.876 125.768 593.27 127.451 592.058 128.798C590.846 130.145 589.23 130.818 587.21 130.818C585.19 130.818 583.507 130.145 582.16 128.798C580.813 127.451 580.14 125.768 580.14 123.748V26.384C580.14 24.4986 580.813 22.8826 582.16 21.536C583.507 20.1893 585.257 19.516 587.412 19.516C589.297 19.516 590.846 20.1893 592.058 21.536C593.27 22.8826 593.876 24.4986 593.876 26.384V123.748Z" fill="black"/>
<path d="M632.051 34.666C634.34 31.7033 636.226 29.5486 637.707 28.202C639.188 26.8553 641.276 25.5086 643.969 24.162C646.662 22.8153 649.49 21.738 652.453 20.93C655.55 20.122 658.378 19.718 660.937 19.718C671.979 19.718 681.474 23.6906 689.419 31.636C693.324 35.676 696.018 39.918 697.499 44.362C699.115 48.6713 699.923 54.3273 699.923 61.33V124.152C699.923 126.172 699.25 127.855 697.903 129.202C696.556 130.549 694.873 131.222 692.853 131.222C690.968 131.222 689.352 130.549 688.005 129.202C686.658 127.855 685.985 126.239 685.985 124.354V60.118C685.985 52.5766 683.426 46.1126 678.309 40.726C673.326 35.2046 667.199 32.444 659.927 32.444C652.116 32.444 645.45 35.1373 639.929 40.524C634.542 45.776 631.849 52.1726 631.849 59.714V124.354C631.849 128.798 629.694 131.02 625.385 131.02C623.365 131.02 621.614 130.347 620.133 129C618.786 127.788 618.113 126.239 618.113 124.354V26.384C618.113 24.364 618.786 22.6806 620.133 21.334C621.479 19.9873 623.23 19.314 625.385 19.314C627.135 19.314 628.684 20.0546 630.031 21.536C631.378 23.0173 632.051 24.7006 632.051 26.586V34.666Z" fill="black"/>
<path d="M264.012 151.589V150.302C264.012 149.972 264.122 149.697 264.342 149.477C264.584 149.235 264.87 149.114 265.2 149.114C265.508 149.114 265.761 149.224 265.959 149.444C266.179 149.642 266.289 149.906 266.289 150.236V166.208C266.289 166.516 266.179 166.78 265.959 167C265.739 167.22 265.475 167.33 265.167 167.33C264.837 167.33 264.551 167.209 264.309 166.967C264.089 166.703 263.979 166.395 263.979 166.043V164.426C263.165 165.526 262.395 166.285 261.669 166.703C260.965 167.099 260.041 167.297 258.897 167.297C256.719 167.297 254.915 166.45 253.485 164.756C252.077 163.04 251.373 160.862 251.373 158.222C251.373 155.604 252.077 153.437 253.485 151.721C254.893 150.005 256.675 149.147 258.831 149.147C259.931 149.147 260.833 149.312 261.537 149.642C262.241 149.972 263.066 150.621 264.012 151.589ZM259.161 151.028C257.511 151.028 256.202 151.677 255.234 152.975C254.288 154.251 253.815 155.989 253.815 158.189C253.815 160.389 254.277 162.138 255.201 163.436C256.125 164.734 257.379 165.383 258.963 165.383C262.417 165.383 264.144 162.93 264.144 158.024C264.144 156.682 264.056 155.648 263.88 154.922C263.704 154.196 263.363 153.503 262.857 152.843C261.955 151.633 260.723 151.028 259.161 151.028Z" fill="black"/>
<path d="M304.06 164.063C304.522 164.393 305.105 164.668 305.809 164.888C306.535 165.108 307.184 165.218 307.756 165.218C309.274 165.218 310.55 164.701 311.584 163.667C312.64 162.611 313.168 161.324 313.168 159.806C313.168 159.08 312.981 158.409 312.607 157.793C312.343 157.309 311.969 156.902 311.485 156.572C311.001 156.242 310.286 155.912 309.34 155.582L307.525 154.955C307.107 154.823 306.755 154.702 306.469 154.592C306.205 154.46 305.93 154.328 305.644 154.196C303.136 153.052 301.882 151.303 301.882 148.949C301.882 147.277 302.542 145.858 303.862 144.692C305.182 143.526 306.788 142.943 308.68 142.943C310.11 142.943 311.364 143.24 312.442 143.834C313.542 144.428 314.092 144.978 314.092 145.484C314.092 145.682 314.015 145.902 313.861 146.144C313.641 146.474 313.366 146.639 313.036 146.639C312.882 146.639 312.596 146.518 312.178 146.276C310.814 145.418 309.637 144.989 308.647 144.989C307.459 144.989 306.447 145.363 305.611 146.111C304.775 146.859 304.357 147.761 304.357 148.817C304.357 149.675 304.643 150.423 305.215 151.061C305.611 151.545 306.029 151.875 306.469 152.051C306.865 152.249 307.36 152.469 307.954 152.711C308.548 152.953 309.186 153.195 309.868 153.437C311.1 153.877 311.969 154.229 312.475 154.493C313.421 154.955 314.158 155.648 314.686 156.572C315.236 157.474 315.511 158.497 315.511 159.641C315.511 161.841 314.785 163.667 313.333 165.119C311.881 166.571 310.033 167.297 307.789 167.297C306.095 167.297 304.555 166.923 303.169 166.175C302.069 165.647 301.519 165.086 301.519 164.492C301.519 164.184 301.618 163.92 301.816 163.7C302.014 163.48 302.278 163.37 302.608 163.37C302.872 163.37 303.169 163.469 303.499 163.667L304.06 164.063Z" fill="black"/>
<path d="M341.403 151.589V150.302C341.403 149.972 341.513 149.697 341.733 149.477C341.975 149.235 342.261 149.114 342.591 149.114C342.899 149.114 343.152 149.224 343.35 149.444C343.57 149.642 343.68 149.906 343.68 150.236V166.208C343.68 166.516 343.57 166.78 343.35 167C343.13 167.22 342.866 167.33 342.558 167.33C342.228 167.33 341.942 167.209 341.7 166.967C341.48 166.703 341.37 166.395 341.37 166.043V164.426C340.556 165.526 339.786 166.285 339.06 166.703C338.356 167.099 337.432 167.297 336.288 167.297C334.11 167.297 332.306 166.45 330.876 164.756C329.468 163.04 328.764 160.862 328.764 158.222C328.764 155.604 329.468 153.437 330.876 151.721C332.284 150.005 334.066 149.147 336.222 149.147C337.322 149.147 338.224 149.312 338.928 149.642C339.632 149.972 340.457 150.621 341.403 151.589ZM336.552 151.028C334.902 151.028 333.593 151.677 332.625 152.975C331.679 154.251 331.206 155.989 331.206 158.189C331.206 160.389 331.668 162.138 332.592 163.436C333.516 164.734 334.77 165.383 336.354 165.383C339.808 165.383 341.535 162.93 341.535 158.024C341.535 156.682 341.447 155.648 341.271 154.922C341.095 154.196 340.754 153.503 340.248 152.843C339.346 151.633 338.114 151.028 336.552 151.028Z" fill="black"/>
<path d="M361.716 151.589C362.09 151.105 362.398 150.753 362.64 150.533C362.882 150.313 363.223 150.093 363.663 149.873C364.103 149.653 364.565 149.477 365.049 149.345C365.555 149.213 366.017 149.147 366.435 149.147C368.239 149.147 369.79 149.796 371.088 151.094C371.726 151.754 372.166 152.447 372.408 153.173C372.672 153.877 372.804 154.801 372.804 155.945V166.208C372.804 166.538 372.694 166.813 372.474 167.033C372.254 167.253 371.979 167.363 371.649 167.363C371.341 167.363 371.077 167.253 370.857 167.033C370.637 166.813 370.527 166.549 370.527 166.241V155.747C370.527 154.515 370.109 153.459 369.273 152.579C368.459 151.677 367.458 151.226 366.27 151.226C364.994 151.226 363.905 151.666 363.003 152.546C362.123 153.404 361.683 154.449 361.683 155.681V166.241C361.683 166.967 361.331 167.33 360.627 167.33C360.297 167.33 360.011 167.22 359.769 167C359.549 166.802 359.439 166.549 359.439 166.241V150.236C359.439 149.906 359.549 149.631 359.769 149.411C359.989 149.191 360.275 149.081 360.627 149.081C360.913 149.081 361.166 149.202 361.386 149.444C361.606 149.686 361.716 149.961 361.716 150.269V151.589Z" fill="black"/>
<path d="M387.62 158.222C387.62 155.604 388.335 153.437 389.765 151.721C391.217 149.983 393.032 149.114 395.21 149.114C397.388 149.114 399.192 149.972 400.622 151.688C402.052 153.404 402.767 155.582 402.767 158.222C402.767 160.818 402.052 162.985 400.622 164.723C399.192 166.461 397.388 167.33 395.21 167.33C393.032 167.33 391.217 166.472 389.765 164.756C388.335 163.018 387.62 160.84 387.62 158.222ZM395.21 151.127C393.692 151.127 392.46 151.787 391.514 153.107C390.568 154.405 390.095 156.11 390.095 158.222C390.095 160.378 390.557 162.105 391.481 163.403C392.427 164.679 393.67 165.317 395.21 165.317C396.728 165.317 397.96 164.668 398.906 163.37C399.852 162.072 400.325 160.356 400.325 158.222C400.325 156.11 399.852 154.405 398.906 153.107C397.96 151.787 396.728 151.127 395.21 151.127Z" fill="black"/>
<path d="M429.202 152.381C429.4 152.029 429.576 151.743 429.73 151.523C429.818 151.391 429.983 151.182 430.225 150.896C430.665 150.39 431.292 149.972 432.106 149.642C432.92 149.312 433.745 149.147 434.581 149.147C436.363 149.147 437.892 149.752 439.168 150.962C439.85 151.622 440.279 152.194 440.455 152.678C440.631 153.14 440.719 154.009 440.719 155.285V166.142C440.719 166.912 440.367 167.297 439.663 167.297C439.355 167.297 439.091 167.187 438.871 166.967C438.651 166.747 438.541 166.472 438.541 166.142V155.252C438.541 154.13 438.167 153.173 437.419 152.381C436.693 151.567 435.824 151.16 434.812 151.16C433.558 151.16 432.491 151.556 431.611 152.348C430.753 153.14 430.324 154.108 430.324 155.252V166.142C430.324 166.472 430.225 166.747 430.027 166.967C429.829 167.187 429.565 167.297 429.235 167.297C428.927 167.297 428.663 167.187 428.443 166.967C428.223 166.747 428.113 166.472 428.113 166.142V155.252C428.113 154.13 427.706 153.162 426.892 152.348C426.078 151.534 425.099 151.127 423.955 151.127C422.789 151.127 421.81 151.523 421.018 152.315C420.226 153.107 419.83 154.086 419.83 155.252V166.142C419.83 166.472 419.72 166.758 419.5 167C419.302 167.22 419.06 167.33 418.774 167.33C418.444 167.33 418.158 167.22 417.916 167C417.696 166.758 417.586 166.472 417.586 166.142V150.269C417.586 149.961 417.696 149.697 417.916 149.477C418.158 149.235 418.433 149.114 418.741 149.114C419.027 149.114 419.28 149.235 419.5 149.477C419.72 149.719 419.83 149.994 419.83 150.302V151.358C420.402 150.566 421.029 149.994 421.711 149.642C422.415 149.268 423.24 149.081 424.186 149.081C425.044 149.081 425.858 149.279 426.628 149.675C427.288 149.983 427.783 150.302 428.113 150.632C428.443 150.962 428.806 151.545 429.202 152.381Z" fill="black"/>
<path d="M468.171 151.589V150.302C468.171 149.972 468.281 149.697 468.501 149.477C468.743 149.235 469.029 149.114 469.359 149.114C469.667 149.114 469.92 149.224 470.118 149.444C470.338 149.642 470.448 149.906 470.448 150.236V166.208C470.448 166.516 470.338 166.78 470.118 167C469.898 167.22 469.634 167.33 469.326 167.33C468.996 167.33 468.71 167.209 468.468 166.967C468.248 166.703 468.138 166.395 468.138 166.043V164.426C467.324 165.526 466.554 166.285 465.828 166.703C465.124 167.099 464.2 167.297 463.056 167.297C460.878 167.297 459.074 166.45 457.644 164.756C456.236 163.04 455.532 160.862 455.532 158.222C455.532 155.604 456.236 153.437 457.644 151.721C459.052 150.005 460.834 149.147 462.99 149.147C464.09 149.147 464.992 149.312 465.696 149.642C466.4 149.972 467.225 150.621 468.171 151.589ZM463.32 151.028C461.67 151.028 460.361 151.677 459.393 152.975C458.447 154.251 457.974 155.989 457.974 158.189C457.974 160.389 458.436 162.138 459.36 163.436C460.284 164.734 461.538 165.383 463.122 165.383C466.576 165.383 468.303 162.93 468.303 158.024C468.303 156.682 468.215 155.648 468.039 154.922C467.863 154.196 467.522 153.503 467.016 152.843C466.114 151.633 464.882 151.028 463.32 151.028Z" fill="black"/>
<path d="M516.337 164.393L516.865 164.162L517.063 164.096C517.393 164.096 517.668 164.195 517.888 164.393C518.108 164.591 518.218 164.855 518.218 165.185C518.218 165.757 517.789 166.252 516.931 166.67C516.095 167.066 515.072 167.264 513.862 167.264C511.508 167.264 509.616 166.439 508.186 164.789C506.756 163.117 506.041 160.928 506.041 158.222C506.041 155.582 506.778 153.404 508.252 151.688C509.726 149.972 511.629 149.114 513.961 149.114C515.149 149.114 516.172 149.301 517.03 149.675C517.888 150.027 518.317 150.456 518.317 150.962C518.317 151.27 518.207 151.545 517.987 151.787C517.767 152.029 517.492 152.15 517.162 152.15C516.942 152.15 516.755 152.106 516.601 152.018L516.106 151.754C515.314 151.38 514.588 151.193 513.928 151.193C512.322 151.193 511.024 151.82 510.034 153.074C509.044 154.328 508.549 155.989 508.549 158.057C508.549 160.103 509.044 161.797 510.034 163.139C511.046 164.459 512.333 165.119 513.895 165.119C514.313 165.119 514.709 165.053 515.083 164.921L516.337 164.393Z" fill="black"/>
<path d="M531.86 158.222C531.86 155.604 532.575 153.437 534.005 151.721C535.457 149.983 537.272 149.114 539.45 149.114C541.628 149.114 543.432 149.972 544.862 151.688C546.292 153.404 547.007 155.582 547.007 158.222C547.007 160.818 546.292 162.985 544.862 164.723C543.432 166.461 541.628 167.33 539.45 167.33C537.272 167.33 535.457 166.472 534.005 164.756C532.575 163.018 531.86 160.84 531.86 158.222ZM539.45 151.127C537.932 151.127 536.7 151.787 535.754 153.107C534.808 154.405 534.335 156.11 534.335 158.222C534.335 160.378 534.797 162.105 535.721 163.403C536.667 164.679 537.91 165.317 539.45 165.317C540.968 165.317 542.2 164.668 543.146 163.37C544.092 162.072 544.565 160.356 544.565 158.222C544.565 156.11 544.092 154.405 543.146 153.107C542.2 151.787 540.968 151.127 539.45 151.127Z" fill="black"/>
<path d="M573.442 152.381C573.64 152.029 573.816 151.743 573.97 151.523C574.058 151.391 574.223 151.182 574.465 150.896C574.905 150.39 575.532 149.972 576.346 149.642C577.16 149.312 577.985 149.147 578.821 149.147C580.603 149.147 582.132 149.752 583.408 150.962C584.09 151.622 584.519 152.194 584.695 152.678C584.871 153.14 584.959 154.009 584.959 155.285V166.142C584.959 166.912 584.607 167.297 583.903 167.297C583.595 167.297 583.331 167.187 583.111 166.967C582.891 166.747 582.781 166.472 582.781 166.142V155.252C582.781 154.13 582.407 153.173 581.659 152.381C580.933 151.567 580.064 151.16 579.052 151.16C577.798 151.16 576.731 151.556 575.851 152.348C574.993 153.14 574.564 154.108 574.564 155.252V166.142C574.564 166.472 574.465 166.747 574.267 166.967C574.069 167.187 573.805 167.297 573.475 167.297C573.167 167.297 572.903 167.187 572.683 166.967C572.463 166.747 572.353 166.472 572.353 166.142V155.252C572.353 154.13 571.946 153.162 571.132 152.348C570.318 151.534 569.339 151.127 568.195 151.127C567.029 151.127 566.05 151.523 565.258 152.315C564.466 153.107 564.07 154.086 564.07 155.252V166.142C564.07 166.472 563.96 166.758 563.74 167C563.542 167.22 563.3 167.33 563.014 167.33C562.684 167.33 562.398 167.22 562.156 167C561.936 166.758 561.826 166.472 561.826 166.142V150.269C561.826 149.961 561.936 149.697 562.156 149.477C562.398 149.235 562.673 149.114 562.981 149.114C563.267 149.114 563.52 149.235 563.74 149.477C563.96 149.719 564.07 149.994 564.07 150.302V151.358C564.642 150.566 565.269 149.994 565.951 149.642C566.655 149.268 567.48 149.081 568.426 149.081C569.284 149.081 570.098 149.279 570.868 149.675C571.528 149.983 572.023 150.302 572.353 150.632C572.683 150.962 573.046 151.545 573.442 152.381Z" fill="black"/>
<path d="M602.972 164.558V173.105C602.972 173.435 602.862 173.699 602.642 173.897C602.444 174.117 602.191 174.227 601.883 174.227C601.575 174.227 601.3 174.117 601.058 173.897C600.838 173.699 600.728 173.435 600.728 173.105V150.302C600.728 149.994 600.827 149.719 601.025 149.477C601.223 149.235 601.476 149.114 601.784 149.114C602.092 149.114 602.367 149.235 602.609 149.477C602.851 149.719 602.972 150.005 602.972 150.335V151.985C603.874 150.885 604.699 150.137 605.447 149.741C606.195 149.323 607.119 149.114 608.219 149.114C610.375 149.114 612.146 149.95 613.532 151.622C614.918 153.294 615.611 155.439 615.611 158.057C615.611 160.763 614.907 162.985 613.499 164.723C612.113 166.439 610.32 167.297 608.12 167.297C606.998 167.297 606.085 167.11 605.381 166.736C604.677 166.362 603.874 165.636 602.972 164.558ZM603.797 153.437C603.137 154.559 602.807 156.253 602.807 158.519C602.807 159.553 602.895 160.422 603.071 161.126C603.247 161.808 603.533 162.457 603.929 163.073C604.963 164.525 606.305 165.251 607.955 165.251C609.539 165.251 610.815 164.602 611.783 163.304C612.751 162.006 613.235 160.268 613.235 158.09C613.235 155.956 612.762 154.262 611.816 153.008C610.892 151.732 609.649 151.094 608.087 151.094C607.229 151.094 606.404 151.314 605.612 151.754C604.842 152.172 604.237 152.733 603.797 153.437Z" fill="black"/>
<path d="M642.096 151.589V150.302C642.096 149.972 642.206 149.697 642.426 149.477C642.668 149.235 642.954 149.114 643.284 149.114C643.592 149.114 643.845 149.224 644.043 149.444C644.263 149.642 644.373 149.906 644.373 150.236V166.208C644.373 166.516 644.263 166.78 644.043 167C643.823 167.22 643.559 167.33 643.251 167.33C642.921 167.33 642.635 167.209 642.393 166.967C642.173 166.703 642.063 166.395 642.063 166.043V164.426C641.249 165.526 640.479 166.285 639.753 166.703C639.049 167.099 638.125 167.297 636.981 167.297C634.803 167.297 632.999 166.45 631.569 164.756C630.161 163.04 629.457 160.862 629.457 158.222C629.457 155.604 630.161 153.437 631.569 151.721C632.977 150.005 634.759 149.147 636.915 149.147C638.015 149.147 638.917 149.312 639.621 149.642C640.325 149.972 641.15 150.621 642.096 151.589ZM637.245 151.028C635.595 151.028 634.286 151.677 633.318 152.975C632.372 154.251 631.899 155.989 631.899 158.189C631.899 160.389 632.361 162.138 633.285 163.436C634.209 164.734 635.463 165.383 637.047 165.383C640.501 165.383 642.228 162.93 642.228 158.024C642.228 156.682 642.14 155.648 641.964 154.922C641.788 154.196 641.447 153.503 640.941 152.843C640.039 151.633 638.807 151.028 637.245 151.028Z" fill="black"/>
<path d="M662.409 151.589C662.783 151.105 663.091 150.753 663.333 150.533C663.575 150.313 663.916 150.093 664.356 149.873C664.796 149.653 665.258 149.477 665.742 149.345C666.248 149.213 666.71 149.147 667.128 149.147C668.932 149.147 670.483 149.796 671.781 151.094C672.419 151.754 672.859 152.447 673.101 153.173C673.365 153.877 673.497 154.801 673.497 155.945V166.208C673.497 166.538 673.387 166.813 673.167 167.033C672.947 167.253 672.672 167.363 672.342 167.363C672.034 167.363 671.77 167.253 671.55 167.033C671.33 166.813 671.22 166.549 671.22 166.241V155.747C671.22 154.515 670.802 153.459 669.966 152.579C669.152 151.677 668.151 151.226 666.963 151.226C665.687 151.226 664.598 151.666 663.696 152.546C662.816 153.404 662.376 154.449 662.376 155.681V166.241C662.376 166.967 662.024 167.33 661.32 167.33C660.99 167.33 660.704 167.22 660.462 167C660.242 166.802 660.132 166.549 660.132 166.241V150.236C660.132 149.906 660.242 149.631 660.462 149.411C660.682 149.191 660.968 149.081 661.32 149.081C661.606 149.081 661.859 149.202 662.079 149.444C662.299 149.686 662.409 149.961 662.409 150.269V151.589Z" fill="black"/>
<path d="M692.801 166.637L687.389 150.632L687.323 150.269C687.323 149.961 687.433 149.697 687.653 149.477C687.873 149.235 688.137 149.114 688.445 149.114C689.039 149.114 689.413 149.389 689.567 149.939L693.989 163.37L698.18 150.104C698.4 149.444 698.785 149.114 699.335 149.114C699.665 149.114 699.929 149.224 700.127 149.444C700.347 149.642 700.457 149.906 700.457 150.236C700.435 150.434 700.413 150.555 700.391 150.599L692.801 173.138C692.559 173.842 692.174 174.194 691.646 174.194C691.316 174.194 691.041 174.095 690.821 173.897C690.601 173.699 690.491 173.457 690.491 173.171L690.59 172.709L692.801 166.637Z" fill="black"/>
<path d="M115.05 24.5516C115.05 38.1112 104.07 49.1033 90.5257 49.1033C76.9815 49.1033 66.0017 38.1112 66.0017 24.5516C66.0017 10.9921 76.9815 -3.05176e-05 90.5257 -3.05176e-05C104.07 -3.05176e-05 115.05 10.9921 115.05 24.5516Z" fill="#FBB900"/>
<path d="M5.90499 81.0098C-1.22224 73.8745 -1.22223 62.306 5.905 55.1707C13.0322 48.0354 24.5878 48.0354 31.715 55.1707L114.612 138.161L113.536 139.237C99.8758 152.913 77.7275 152.913 64.0669 139.237L5.90499 81.0098Z" fill="#E5007D"/>
<path d="M115.021 86.2408L140.747 111.996L114.565 138.208L88.8387 112.452L115.021 86.2408Z" fill="#E5007D"/>
<path d="M180.302 20.9C187.423 13.7718 198.968 13.7722 206.088 20.9007C213.216 28.0367 213.208 39.6091 206.07 46.7349L139.606 113.082C125.498 127.166 102.586 126.894 88.8148 112.481L180.302 20.9Z" fill="#B50D7C"/>
</svg>
