<svg width="198" height="51" viewBox="0 0 198 51" fill="none" xmlns="http://www.w3.org/2000/svg">
<path d="M80.4751 30.7937L88.1326 7.62158C88.4374 6.61746 89.0089 6.1154 89.847 6.1154C90.4184 6.1154 90.8947 6.32781 91.2756 6.75263C91.6947 7.13883 91.9042 7.60227 91.9042 8.14296L91.7899 8.72226L82.3609 36.5288C82.018 37.4943 81.3704 37.977 80.418 37.977C79.4275 37.977 78.7608 37.4943 78.4179 36.5288L68.9889 8.72226L68.9317 8.14296C68.9317 7.60227 69.1222 7.13883 69.5032 6.75263C69.8842 6.32781 70.3413 6.1154 70.8747 6.1154C71.7509 6.1154 72.3605 6.61746 72.7033 7.62158L80.4751 30.7937Z" fill="black"/>
<path d="M114.716 10.4022V8.14296C114.716 7.56365 114.906 7.0809 115.287 6.6947C115.706 6.26988 116.201 6.05747 116.773 6.05747C117.306 6.05747 117.744 6.25057 118.087 6.63677C118.468 6.98436 118.659 7.4478 118.659 8.0271V36.0653C118.659 36.606 118.468 37.0694 118.087 37.4556C117.706 37.8418 117.249 38.0349 116.716 38.0349C116.144 38.0349 115.649 37.8225 115.23 37.3977C114.849 36.9343 114.658 36.3936 114.658 35.7757V32.9371C113.249 34.8681 111.915 36.2005 110.658 36.9343C109.439 37.6294 107.839 37.977 105.858 37.977C102.086 37.977 98.9624 36.4901 96.4861 33.5164C94.0479 30.504 92.8288 26.6806 92.8288 22.0462C92.8288 17.4504 94.0479 13.6463 96.4861 10.634C98.9243 7.62159 102.01 6.1154 105.744 6.1154C107.649 6.1154 109.211 6.40505 110.43 6.98435C111.649 7.56365 113.077 8.70295 114.716 10.4022ZM106.315 9.41742C103.458 9.41742 101.191 10.5567 99.5148 12.8353C97.8767 15.0753 97.0576 18.1263 97.0576 21.9883C97.0576 25.8503 97.8576 28.9206 99.4577 31.1992C101.058 33.4778 103.229 34.6171 105.972 34.6171C111.954 34.6171 114.944 30.3109 114.944 21.6986C114.944 19.3428 114.792 17.5276 114.487 16.2532C114.182 14.9787 113.592 13.7622 112.715 12.6036C111.153 10.4795 109.02 9.41742 106.315 9.41742Z" fill="black"/>
<path d="M129.319 10.4022C129.967 9.55259 130.5 8.93467 130.919 8.54847C131.338 8.16227 131.929 7.77607 132.69 7.38986C133.452 7.00366 134.252 6.6947 135.091 6.46298C135.967 6.23126 136.767 6.1154 137.491 6.1154C140.615 6.1154 143.3 7.25469 145.548 9.53328C146.653 10.6919 147.415 11.9084 147.834 13.1829C148.291 14.4187 148.52 16.0408 148.52 18.049V36.0653C148.52 36.6446 148.329 37.1274 147.948 37.5136C147.567 37.8998 147.091 38.0929 146.52 38.0929C145.986 38.0929 145.529 37.8998 145.148 37.5136C144.767 37.1274 144.577 36.6639 144.577 36.1232V17.7014C144.577 15.5387 143.853 13.6849 142.405 12.1401C140.996 10.5567 139.262 9.765 137.205 9.765C134.995 9.765 133.11 10.5374 131.548 12.0822C130.024 13.5884 129.262 15.4229 129.262 17.5856V36.1232C129.262 37.3977 128.652 38.0349 127.433 38.0349C126.862 38.0349 126.366 37.8418 125.947 37.4556C125.566 37.1081 125.376 36.6639 125.376 36.1232V8.0271C125.376 7.4478 125.566 6.96504 125.947 6.57884C126.328 6.19264 126.824 5.99954 127.433 5.99954C127.928 5.99954 128.366 6.21195 128.747 6.63677C129.128 7.06159 129.319 7.54435 129.319 8.08503V10.4022Z" fill="black"/>
<path d="M167.848 36.523C167.848 37.1023 167.677 37.5851 167.334 37.9713C166.991 38.3575 166.534 38.5506 165.963 38.5506C165.391 38.5506 164.915 38.3575 164.534 37.9713C164.153 37.5851 163.962 37.1023 163.962 36.523V8.60066C163.962 8.05998 164.153 7.59654 164.534 7.21034C164.915 6.82414 165.41 6.63103 166.02 6.63103C166.553 6.63103 166.991 6.82414 167.334 7.21034C167.677 7.59654 167.848 8.05998 167.848 8.60066V36.523Z" fill="black"/>
<path d="M178.648 10.9758C179.296 10.1262 179.829 9.50824 180.248 9.12204C180.667 8.73583 181.258 8.34963 182.02 7.96343C182.781 7.57723 183.581 7.26827 184.42 7.03655C185.296 6.80483 186.096 6.68897 186.82 6.68897C189.944 6.68897 192.63 7.82826 194.877 10.1068C195.982 11.2655 196.744 12.482 197.163 13.7565C197.62 14.9923 197.849 16.6143 197.849 18.6226V36.6389C197.849 37.2182 197.658 37.7009 197.277 38.0871C196.896 38.4733 196.42 38.6664 195.849 38.6664C195.315 38.6664 194.858 38.4733 194.477 38.0871C194.096 37.7009 193.906 37.2375 193.906 36.6968V18.275C193.906 16.1123 193.182 14.2585 191.734 12.7137C190.325 11.1303 188.591 10.3386 186.534 10.3386C184.324 10.3386 182.439 11.111 180.877 12.6558C179.353 14.162 178.591 15.9964 178.591 18.1591V36.6968C178.591 37.9713 177.981 38.6085 176.762 38.6085C176.191 38.6085 175.695 38.4154 175.276 38.0292C174.895 37.6816 174.705 37.2375 174.705 36.6968V8.60066C174.705 8.02136 174.895 7.53861 175.276 7.15241C175.657 6.76621 176.153 6.57311 176.762 6.57311C177.257 6.57311 177.695 6.78552 178.076 7.21034C178.457 7.63516 178.648 8.11791 178.648 8.65859V10.9758Z" fill="black"/>
<path d="M74.5302 44.5073V44.1383C74.5302 44.0436 74.5613 43.9648 74.6235 43.9017C74.692 43.8323 74.7729 43.7976 74.8663 43.7976C74.9534 43.7976 75.025 43.8291 75.081 43.8922C75.1432 43.949 75.1743 44.0247 75.1743 44.1193V48.6998C75.1743 48.7882 75.1432 48.8639 75.081 48.927C75.0188 48.9901 74.9441 49.0216 74.8569 49.0216C74.7636 49.0216 74.6827 48.9869 74.6142 48.9175C74.552 48.8418 74.5209 48.7535 74.5209 48.6525V48.1888C74.2906 48.5042 74.0727 48.7219 73.8674 48.8418C73.6682 48.9553 73.4068 49.0121 73.0832 49.0121C72.467 49.0121 71.9567 48.7692 71.5521 48.2834C71.1538 47.7913 70.9546 47.1667 70.9546 46.4096C70.9546 45.6588 71.1538 45.0373 71.5521 44.5452C71.9504 44.0531 72.4546 43.807 73.0645 43.807C73.3757 43.807 73.6309 43.8543 73.83 43.949C74.0292 44.0436 74.2626 44.2297 74.5302 44.5073ZM73.1578 44.3465C72.6911 44.3465 72.3207 44.5326 72.0469 44.9048C71.7793 45.2708 71.6455 45.7692 71.6455 46.4001C71.6455 47.031 71.7762 47.5326 72.0376 47.9049C72.299 48.2771 72.6537 48.4632 73.1018 48.4632C74.079 48.4632 74.5675 47.7598 74.5675 46.3528C74.5675 45.9679 74.5426 45.6714 74.4929 45.4632C74.4431 45.255 74.3466 45.0562 74.2034 44.867C73.9483 44.52 73.5997 44.3465 73.1578 44.3465Z" fill="black"/>
<path d="M85.8598 48.0847C85.9905 48.1793 86.1554 48.2582 86.3546 48.3213C86.56 48.3844 86.7436 48.4159 86.9054 48.4159C87.3348 48.4159 87.6958 48.2676 87.9883 47.9711C88.2871 47.6683 88.4364 47.2992 88.4364 46.8638C88.4364 46.6556 88.3835 46.4632 88.2777 46.2865C88.203 46.1477 88.0972 46.031 87.9603 45.9364C87.8234 45.8417 87.6211 45.7471 87.3535 45.6525L86.84 45.4727C86.7218 45.4348 86.6222 45.4001 86.5413 45.3686C86.4666 45.3307 86.3888 45.2928 86.3079 45.255C85.5984 44.9269 85.2436 44.4253 85.2436 43.7502C85.2436 43.2707 85.4304 42.8638 85.8038 42.5294C86.1772 42.195 86.6315 42.0278 87.1668 42.0278C87.5713 42.0278 87.9261 42.113 88.2311 42.2833C88.5422 42.4537 88.6978 42.6114 88.6978 42.7565C88.6978 42.8133 88.6761 42.8764 88.6325 42.9458C88.5703 43.0404 88.4925 43.0878 88.3991 43.0878C88.3555 43.0878 88.2746 43.0531 88.1564 42.9837C87.7705 42.7376 87.4375 42.6146 87.1575 42.6146C86.8214 42.6146 86.5351 42.7218 86.2986 42.9363C86.0621 43.1509 85.9438 43.4095 85.9438 43.7124C85.9438 43.9584 86.0247 44.173 86.1865 44.3559C86.2986 44.4947 86.4168 44.5894 86.5413 44.6398C86.6533 44.6966 86.7934 44.7597 86.9614 44.8291C87.1294 44.8985 87.3099 44.9679 87.5029 45.0373C87.8514 45.1635 88.0973 45.2645 88.2404 45.3402C88.508 45.4727 88.7165 45.6714 88.8659 45.9364C89.0215 46.1951 89.0993 46.4884 89.0993 46.8165C89.0993 47.4474 88.8939 47.9711 88.4831 48.3875C88.0724 48.8039 87.5496 49.0121 86.9147 49.0121C86.4355 49.0121 85.9998 48.9049 85.6077 48.6904C85.2966 48.5389 85.141 48.3781 85.141 48.2077C85.141 48.1194 85.169 48.0437 85.225 47.9806C85.281 47.9175 85.3557 47.8859 85.449 47.8859C85.5237 47.8859 85.6077 47.9143 85.7011 47.9711L85.8598 48.0847Z" fill="black"/>
<path d="M96.4241 44.5073V44.1383C96.4241 44.0436 96.4552 43.9648 96.5175 43.9017C96.5859 43.8323 96.6668 43.7976 96.7602 43.7976C96.8473 43.7976 96.9189 43.8291 96.9749 43.8922C97.0371 43.949 97.0683 44.0247 97.0683 44.1193V48.6998C97.0683 48.7882 97.0371 48.8639 96.9749 48.927C96.9127 48.9901 96.838 49.0216 96.7509 49.0216C96.6575 49.0216 96.5766 48.9869 96.5081 48.9175C96.4459 48.8418 96.4148 48.7535 96.4148 48.6525V48.1888C96.1845 48.5042 95.9667 48.7219 95.7613 48.8418C95.5621 48.9553 95.3007 49.0121 94.9771 49.0121C94.3609 49.0121 93.8506 48.7692 93.446 48.2834C93.0477 47.7913 92.8486 47.1667 92.8486 46.4096C92.8486 45.6588 93.0477 45.0373 93.446 44.5452C93.8444 44.0531 94.3485 43.807 94.9584 43.807C95.2696 43.807 95.5248 43.8543 95.7239 43.949C95.9231 44.0436 96.1565 44.2297 96.4241 44.5073ZM95.0518 44.3465C94.585 44.3465 94.2147 44.5326 93.9408 44.9048C93.6732 45.2708 93.5394 45.7692 93.5394 46.4001C93.5394 47.031 93.6701 47.5326 93.9315 47.9049C94.1929 48.2771 94.5476 48.4632 94.9958 48.4632C95.9729 48.4632 96.4614 47.7598 96.4614 46.3528C96.4614 45.9679 96.4366 45.6714 96.3868 45.4632C96.337 45.255 96.2405 45.0562 96.0974 44.867C95.8422 44.52 95.4937 44.3465 95.0518 44.3465Z" fill="black"/>
<path d="M102.171 44.5073C102.276 44.3685 102.364 44.2676 102.432 44.2045C102.501 44.1414 102.597 44.0783 102.721 44.0152C102.846 43.9521 102.977 43.9017 103.114 43.8638C103.257 43.8259 103.387 43.807 103.506 43.807C104.016 43.807 104.455 43.9931 104.822 44.3654C105.002 44.5547 105.127 44.7534 105.195 44.9616C105.27 45.1635 105.307 45.4285 105.307 45.7566V48.6998C105.307 48.7945 105.276 48.8733 105.214 48.9364C105.152 48.9995 105.074 49.0311 104.981 49.0311C104.894 49.0311 104.819 48.9995 104.757 48.9364C104.694 48.8733 104.663 48.7976 104.663 48.7093V45.6998C104.663 45.3465 104.545 45.0436 104.309 44.7913C104.078 44.5326 103.795 44.4032 103.459 44.4032C103.098 44.4032 102.79 44.5294 102.535 44.7818C102.286 45.0279 102.161 45.3275 102.161 45.6809V48.7093C102.161 48.9175 102.062 49.0216 101.863 49.0216C101.769 49.0216 101.688 48.9901 101.62 48.927C101.558 48.8702 101.526 48.7976 101.526 48.7093V44.1193C101.526 44.0247 101.558 43.9458 101.62 43.8827C101.682 43.8196 101.763 43.7881 101.863 43.7881C101.943 43.7881 102.015 43.8228 102.077 43.8922C102.14 43.9616 102.171 44.0405 102.171 44.1288V44.5073Z" fill="black"/>
<path d="M109.499 46.4096C109.499 45.6588 109.701 45.0373 110.106 44.5452C110.516 44.0468 111.03 43.7976 111.646 43.7976C112.262 43.7976 112.773 44.0436 113.177 44.5357C113.582 45.0279 113.784 45.6525 113.784 46.4096C113.784 47.1541 113.582 47.7755 113.177 48.274C112.773 48.7724 112.262 49.0216 111.646 49.0216C111.03 49.0216 110.516 48.7755 110.106 48.2834C109.701 47.785 109.499 47.1604 109.499 46.4096ZM111.646 44.3748C111.217 44.3748 110.868 44.5641 110.6 44.9427C110.333 45.3149 110.199 45.8039 110.199 46.4096C110.199 47.0279 110.33 47.5232 110.591 47.8954C110.859 48.2613 111.21 48.4443 111.646 48.4443C112.075 48.4443 112.424 48.2582 112.692 47.8859C112.959 47.5137 113.093 47.0216 113.093 46.4096C113.093 45.8039 112.959 45.3149 112.692 44.9427C112.424 44.5641 112.075 44.3748 111.646 44.3748Z" fill="black"/>
<path d="M121.262 44.7345C121.318 44.6335 121.368 44.5515 121.412 44.4884C121.437 44.4506 121.483 44.3906 121.552 44.3086C121.676 44.1635 121.854 44.0436 122.084 43.949C122.314 43.8543 122.548 43.807 122.784 43.807C123.288 43.807 123.721 43.9805 124.082 44.3275C124.275 44.5168 124.396 44.6809 124.446 44.8197C124.496 44.9521 124.52 45.2014 124.52 45.5673V48.6809C124.52 48.9017 124.421 49.0121 124.222 49.0121C124.135 49.0121 124.06 48.9806 123.998 48.9175C123.935 48.8544 123.904 48.7755 123.904 48.6809V45.5578C123.904 45.2361 123.799 44.9616 123.587 44.7345C123.382 44.501 123.136 44.3843 122.849 44.3843C122.495 44.3843 122.193 44.4979 121.944 44.725C121.701 44.9521 121.58 45.2297 121.58 45.5578V48.6809C121.58 48.7755 121.552 48.8544 121.496 48.9175C121.44 48.9806 121.365 49.0121 121.272 49.0121C121.185 49.0121 121.11 48.9806 121.048 48.9175C120.985 48.8544 120.954 48.7755 120.954 48.6809V45.5578C120.954 45.2361 120.839 44.9585 120.609 44.725C120.379 44.4916 120.102 44.3748 119.778 44.3748C119.448 44.3748 119.171 44.4884 118.947 44.7155C118.723 44.9427 118.611 45.2234 118.611 45.5578V48.6809C118.611 48.7755 118.58 48.8576 118.518 48.927C118.462 48.9901 118.393 49.0216 118.312 49.0216C118.219 49.0216 118.138 48.9901 118.07 48.927C118.007 48.8576 117.976 48.7755 117.976 48.6809V44.1288C117.976 44.0405 118.007 43.9648 118.07 43.9017C118.138 43.8323 118.216 43.7976 118.303 43.7976C118.384 43.7976 118.455 43.8323 118.518 43.9017C118.58 43.9711 118.611 44.0499 118.611 44.1383V44.4411C118.773 44.214 118.95 44.0499 119.143 43.949C119.342 43.8417 119.576 43.7881 119.843 43.7881C120.086 43.7881 120.316 43.8449 120.534 43.9584C120.721 44.0468 120.861 44.1383 120.954 44.2329C121.048 44.3275 121.15 44.4947 121.262 44.7345Z" fill="black"/>
<path d="M132.286 44.5073V44.1383C132.286 44.0436 132.318 43.9648 132.38 43.9017C132.448 43.8323 132.529 43.7976 132.623 43.7976C132.71 43.7976 132.781 43.8291 132.837 43.8922C132.9 43.949 132.931 44.0247 132.931 44.1193V48.6998C132.931 48.7882 132.9 48.8639 132.837 48.927C132.775 48.9901 132.7 49.0216 132.613 49.0216C132.52 49.0216 132.439 48.9869 132.371 48.9175C132.308 48.8418 132.277 48.7535 132.277 48.6525V48.1888C132.047 48.5042 131.829 48.7219 131.624 48.8418C131.425 48.9553 131.163 49.0121 130.839 49.0121C130.223 49.0121 129.713 48.7692 129.308 48.2834C128.91 47.7913 128.711 47.1667 128.711 46.4096C128.711 45.6588 128.91 45.0373 129.308 44.5452C129.707 44.0531 130.211 43.807 130.821 43.807C131.132 43.807 131.387 43.8543 131.586 43.949C131.785 44.0436 132.019 44.2297 132.286 44.5073ZM130.914 44.3465C130.447 44.3465 130.077 44.5326 129.803 44.9048C129.536 45.2708 129.402 45.7692 129.402 46.4001C129.402 47.031 129.532 47.5326 129.794 47.9049C130.055 48.2771 130.41 48.4632 130.858 48.4632C131.835 48.4632 132.324 47.7598 132.324 46.3528C132.324 45.9679 132.299 45.6714 132.249 45.4632C132.199 45.255 132.103 45.0562 131.96 44.867C131.705 44.52 131.356 44.3465 130.914 44.3465Z" fill="black"/>
<path d="M145.913 48.1793L146.062 48.1131L146.118 48.0941C146.211 48.0941 146.289 48.1225 146.351 48.1793C146.414 48.2361 146.445 48.3118 146.445 48.4064C146.445 48.5705 146.323 48.7124 146.081 48.8323C145.844 48.9459 145.555 49.0027 145.213 49.0027C144.547 49.0027 144.011 48.7661 143.607 48.2929C143.202 47.8134 143 47.1856 143 46.4096C143 45.6525 143.208 45.0279 143.625 44.5357C144.042 44.0436 144.581 43.7976 145.241 43.7976C145.577 43.7976 145.866 43.8512 146.109 43.9584C146.351 44.0594 146.473 44.1824 146.473 44.3275C146.473 44.4159 146.442 44.4947 146.379 44.5641C146.317 44.6335 146.239 44.6682 146.146 44.6682C146.084 44.6682 146.031 44.6556 145.987 44.6304L145.847 44.5547C145.623 44.4474 145.418 44.3938 145.231 44.3938C144.777 44.3938 144.41 44.5736 144.13 44.9332C143.85 45.2928 143.709 45.7692 143.709 46.3623C143.709 46.949 143.85 47.4348 144.13 47.8197C144.416 48.1982 144.78 48.3875 145.222 48.3875C145.34 48.3875 145.452 48.3686 145.558 48.3307L145.913 48.1793Z" fill="black"/>
<path d="M150.304 46.4096C150.304 45.6588 150.506 45.0373 150.911 44.5452C151.322 44.0468 151.835 43.7976 152.451 43.7976C153.067 43.7976 153.578 44.0436 153.982 44.5357C154.387 45.0279 154.589 45.6525 154.589 46.4096C154.589 47.1541 154.387 47.7755 153.982 48.274C153.578 48.7724 153.067 49.0216 152.451 49.0216C151.835 49.0216 151.322 48.7755 150.911 48.2834C150.506 47.785 150.304 47.1604 150.304 46.4096ZM152.451 44.3748C152.022 44.3748 151.673 44.5641 151.406 44.9427C151.138 45.3149 151.004 45.8039 151.004 46.4096C151.004 47.0279 151.135 47.5232 151.396 47.8954C151.664 48.2613 152.016 48.4443 152.451 48.4443C152.881 48.4443 153.229 48.2582 153.497 47.8859C153.764 47.5137 153.898 47.0216 153.898 46.4096C153.898 45.8039 153.764 45.3149 153.497 44.9427C153.229 44.5641 152.881 44.3748 152.451 44.3748Z" fill="black"/>
<path d="M162.068 44.7345C162.124 44.6335 162.173 44.5515 162.217 44.4884C162.242 44.4506 162.288 44.3906 162.357 44.3086C162.481 44.1635 162.659 44.0436 162.889 43.949C163.119 43.8543 163.353 43.807 163.589 43.807C164.093 43.807 164.526 43.9805 164.887 44.3275C165.08 44.5168 165.201 44.6809 165.251 44.8197C165.301 44.9521 165.326 45.2014 165.326 45.5673V48.6809C165.326 48.9017 165.226 49.0121 165.027 49.0121C164.94 49.0121 164.865 48.9806 164.803 48.9175C164.741 48.8544 164.71 48.7755 164.71 48.6809V45.5578C164.71 45.2361 164.604 44.9616 164.392 44.7345C164.187 44.501 163.941 44.3843 163.655 44.3843C163.3 44.3843 162.998 44.4979 162.749 44.725C162.506 44.9521 162.385 45.2297 162.385 45.5578V48.6809C162.385 48.7755 162.357 48.8544 162.301 48.9175C162.245 48.9806 162.17 49.0121 162.077 49.0121C161.99 49.0121 161.915 48.9806 161.853 48.9175C161.791 48.8544 161.759 48.7755 161.759 48.6809V45.5578C161.759 45.2361 161.644 44.9585 161.414 44.725C161.184 44.4916 160.907 44.3748 160.583 44.3748C160.253 44.3748 159.976 44.4884 159.752 44.7155C159.528 44.9427 159.416 45.2234 159.416 45.5578V48.6809C159.416 48.7755 159.385 48.8576 159.323 48.927C159.267 48.9901 159.198 49.0216 159.117 49.0216C159.024 49.0216 158.943 48.9901 158.875 48.927C158.812 48.8576 158.781 48.7755 158.781 48.6809V44.1288C158.781 44.0405 158.812 43.9648 158.875 43.9017C158.943 43.8323 159.021 43.7976 159.108 43.7976C159.189 43.7976 159.261 43.8323 159.323 43.9017C159.385 43.9711 159.416 44.0499 159.416 44.1383V44.4411C159.578 44.214 159.755 44.0499 159.948 43.949C160.147 43.8417 160.381 43.7881 160.649 43.7881C160.891 43.7881 161.122 43.8449 161.339 43.9584C161.526 44.0468 161.666 44.1383 161.759 44.2329C161.853 44.3275 161.955 44.4947 162.068 44.7345Z" fill="black"/>
<path d="M170.422 48.2266V50.6778C170.422 50.7724 170.391 50.8481 170.328 50.9049C170.272 50.968 170.201 50.9995 170.114 50.9995C170.026 50.9995 169.949 50.968 169.88 50.9049C169.818 50.8481 169.787 50.7724 169.787 50.6778V44.1383C169.787 44.0499 169.815 43.9711 169.871 43.9017C169.927 43.8323 169.998 43.7976 170.086 43.7976C170.173 43.7976 170.251 43.8323 170.319 43.9017C170.387 43.9711 170.422 44.0531 170.422 44.1477V44.6209C170.677 44.3054 170.91 44.0909 171.122 43.9774C171.333 43.8575 171.595 43.7976 171.906 43.7976C172.516 43.7976 173.017 44.0373 173.409 44.5168C173.801 44.9963 173.997 45.6115 173.997 46.3623C173.997 47.1383 173.798 47.7755 173.4 48.274C173.008 48.7661 172.5 49.0121 171.878 49.0121C171.561 49.0121 171.302 48.9585 171.103 48.8512C170.904 48.744 170.677 48.5358 170.422 48.2266ZM170.655 45.0373C170.468 45.3591 170.375 45.8449 170.375 46.4947C170.375 46.7913 170.4 47.0405 170.45 47.2424C170.499 47.438 170.58 47.6241 170.692 47.8008C170.985 48.2172 171.365 48.4254 171.831 48.4254C172.279 48.4254 172.64 48.2393 172.914 47.867C173.188 47.4948 173.325 46.9963 173.325 46.3717C173.325 45.7597 173.191 45.2739 172.924 44.9143C172.662 44.5484 172.311 44.3654 171.869 44.3654C171.626 44.3654 171.393 44.4285 171.169 44.5547C170.951 44.6745 170.78 44.8354 170.655 45.0373Z" fill="black"/>
<path d="M181.49 44.5073V44.1383C181.49 44.0436 181.521 43.9648 181.583 43.9017C181.652 43.8323 181.732 43.7976 181.826 43.7976C181.913 43.7976 181.985 43.8291 182.041 43.8922C182.103 43.949 182.134 44.0247 182.134 44.1193V48.6998C182.134 48.7882 182.103 48.8639 182.041 48.927C181.978 48.9901 181.904 49.0216 181.817 49.0216C181.723 49.0216 181.642 48.9869 181.574 48.9175C181.512 48.8418 181.48 48.7535 181.48 48.6525V48.1888C181.25 48.5042 181.032 48.7219 180.827 48.8418C180.628 48.9553 180.366 49.0121 180.043 49.0121C179.427 49.0121 178.916 48.7692 178.512 48.2834C178.113 47.7913 177.914 47.1667 177.914 46.4096C177.914 45.6588 178.113 45.0373 178.512 44.5452C178.91 44.0531 179.414 43.807 180.024 43.807C180.335 43.807 180.59 43.8543 180.79 43.949C180.989 44.0436 181.222 44.2297 181.49 44.5073ZM180.117 44.3465C179.651 44.3465 179.28 44.5326 179.006 44.9048C178.739 45.2708 178.605 45.7692 178.605 46.4001C178.605 47.031 178.736 47.5326 178.997 47.9049C179.259 48.2771 179.613 48.4632 180.061 48.4632C181.039 48.4632 181.527 47.7598 181.527 46.3528C181.527 45.9679 181.502 45.6714 181.452 45.4632C181.403 45.255 181.306 45.0562 181.163 44.867C180.908 44.52 180.559 44.3465 180.117 44.3465Z" fill="black"/>
<path d="M187.236 44.5073C187.342 44.3685 187.429 44.2676 187.498 44.2045C187.566 44.1414 187.663 44.0783 187.787 44.0152C187.912 43.9521 188.042 43.9017 188.179 43.8638C188.322 43.8259 188.453 43.807 188.571 43.807C189.082 43.807 189.52 43.9931 189.888 44.3654C190.068 44.5547 190.193 44.7534 190.261 44.9616C190.336 45.1635 190.373 45.4285 190.373 45.7566V48.6998C190.373 48.7945 190.342 48.8733 190.28 48.9364C190.217 48.9995 190.14 49.0311 190.046 49.0311C189.959 49.0311 189.884 48.9995 189.822 48.9364C189.76 48.8733 189.729 48.7976 189.729 48.7093V45.6998C189.729 45.3465 189.611 45.0436 189.374 44.7913C189.144 44.5326 188.861 44.4032 188.525 44.4032C188.164 44.4032 187.856 44.5294 187.6 44.7818C187.351 45.0279 187.227 45.3275 187.227 45.6809V48.7093C187.227 48.9175 187.127 49.0216 186.928 49.0216C186.835 49.0216 186.754 48.9901 186.685 48.927C186.623 48.8702 186.592 48.7976 186.592 48.7093V44.1193C186.592 44.0247 186.623 43.9458 186.685 43.8827C186.748 43.8196 186.829 43.7881 186.928 43.7881C187.009 43.7881 187.081 43.8228 187.143 43.8922C187.205 43.9616 187.236 44.0405 187.236 44.1288V44.5073Z" fill="black"/>
<path d="M195.834 48.8229L194.303 44.2329L194.284 44.1288C194.284 44.0405 194.316 43.9648 194.378 43.9017C194.44 43.8323 194.515 43.7976 194.602 43.7976C194.77 43.7976 194.876 43.8764 194.919 44.0341L196.17 47.8859L197.356 44.0815C197.418 43.8922 197.527 43.7976 197.683 43.7976C197.776 43.7976 197.851 43.8291 197.907 43.8922C197.969 43.949 198 44.0247 198 44.1193C197.994 44.1761 197.988 44.2108 197.981 44.2234L195.834 50.6872C195.766 50.8891 195.657 50.9901 195.507 50.9901C195.414 50.9901 195.336 50.9617 195.274 50.9049C195.212 50.8481 195.181 50.7787 195.181 50.6967L195.209 50.5642L195.834 48.8229Z" fill="black"/>
<path d="M32.3891 8.07518C32.3891 11.9638 29.2829 15.1162 25.4513 15.1162C21.6196 15.1162 18.5135 11.9638 18.5135 8.07518C18.5135 4.18654 21.6196 1.03418 25.4513 1.03418C29.2829 1.03418 32.3891 4.18654 32.3891 8.07518Z" fill="#FBB900"/>
<path d="M1.51221 24.2664C-0.504072 22.2202 -0.50407 18.9025 1.51221 16.8562C3.5285 14.8099 6.79754 14.8099 8.81383 16.8562L32.2652 40.6564L31.961 40.9651C28.0964 44.8871 21.8307 44.8871 17.9661 40.9651L1.51221 24.2664Z" fill="#E5007D"/>
<path d="M32.3809 25.7666L39.6588 33.1528L32.2519 40.6698L24.974 33.2837L32.3809 25.7666Z" fill="#E5007D"/>
<path d="M50.8489 7.02795C52.8634 4.98372 56.1294 4.98381 58.1437 7.02815C60.1602 9.07465 60.1579 12.3934 58.1385 14.437L39.336 33.4643C35.3449 37.5031 28.8631 37.4253 24.9673 33.2918L50.8489 7.02795Z" fill="#B50D7C"/>
</svg>
